<svg width="22" height="22" viewBox="0 0 22 22" fill="none" xmlns="http://www.w3.org/2000/svg">
    <path d="M11 8.64286C11.2084 8.64286 11.4082 8.72564 11.5556 8.87299C11.7029 9.02034 11.7857 9.22019 11.7857 9.42857V16.5C11.7857 16.7084 11.7029 16.9082 11.5556 17.0556C11.4082 17.2029 11.2084 17.2857 11 17.2857C10.7916 17.2857 10.5918 17.2029 10.4444 17.0556C10.2971 16.9082 10.2143 16.7084 10.2143 16.5V9.42857C10.2143 9.22019 10.2971 9.02034 10.4444 8.87299C10.5918 8.72564 10.7916 8.64286 11 8.64286ZM11 7.07143C11.3126 7.07143 11.6123 6.94726 11.8334 6.72623C12.0544 6.50521 12.1786 6.20543 12.1786 5.89286C12.1786 5.58028 12.0544 5.28051 11.8334 5.05948C11.6123 4.83846 11.3126 4.71429 11 4.71429C10.6874 4.71429 10.3876 4.83846 10.1666 5.05948C9.9456 5.28051 9.82143 5.58028 9.82143 5.89286C9.82143 6.20543 9.9456 6.50521 10.1666 6.72623C10.3876 6.94726 10.6874 7.07143 11 7.07143ZM0 11C0 4.92486 4.92486 0 11 0C17.0751 0 22 4.92486 22 11C22 17.0751 17.0751 22 11 22C4.92486 22 0 17.0751 0 11ZM11 1.57143C5.79307 1.57143 1.57143 5.79307 1.57143 11C1.57143 16.2069 5.79307 20.4286 11 20.4286C16.2069 20.4286 20.4286 16.2069 20.4286 11C20.4286 5.79307 16.2069 1.57143 11 1.57143Z" fill="#0A1F69"/>
</svg>